<?xml version="1.0" encoding="UTF-8"?>
<svg width="1280" height="640" viewBox="0 0 1280 640" xmlns="http://www.w3.org/2000/svg">
  <defs>
    <linearGradient id="backgroundGradient" x1="0%" y1="0%" x2="100%" y2="100%">
      <stop offset="0%" style="stop-color:#0f0c29;stop-opacity:1"/>
      <stop offset="35%" style="stop-color:#302b63;stop-opacity:1"/>
      <stop offset="70%" style="stop-color:#24243e;stop-opacity:1"/>
      <stop offset="100%" style="stop-color:#1a1a2e;stop-opacity:1"/>
    </linearGradient>
    <linearGradient id="terminalGradient" x1="0%" y1="0%" x2="100%" y2="100%">
      <stop offset="0%" style="stop-color:#0d1117;stop-opacity:0.95"/>
      <stop offset="100%" style="stop-color:#161b22;stop-opacity:0.95"/>
    </linearGradient>
    <filter id="glow">
      <feGaussianBlur stdDeviation="3" result="coloredBlur"/>
      <feMerge>
        <feMergeNode in="coloredBlur"/>
        <feMergeNode in="SourceGraphic"/>
      </feMerge>
    </filter>
    <filter id="softGlow">
      <feGaussianBlur stdDeviation="8" result="coloredBlur"/>
      <feMerge>
        <feMergeNode in="coloredBlur"/>
        <feMergeNode in="SourceGraphic"/>
      </feMerge>
    </filter>
  </defs>

  <!-- Background -->
  <rect width="1280" height="640" fill="url(#backgroundGradient)"/>

  <!-- Animated network grid background -->
  <g opacity="0.1" stroke="#ffffff" stroke-width="1" fill="none">
    <defs>
      <pattern id="grid" width="80" height="80" patternUnits="userSpaceOnUse">
        <path d="M 80 0 L 0 0 0 80" stroke="#ffffff" stroke-width="1" fill="none"/>
      </pattern>
    </defs>
    <rect width="1280" height="640" fill="url(#grid)"/>
  </g>

  <!-- Logo Section (Left) -->
  <g transform="translate(120, 180)">
    <!-- Main penguin logo -->
    <circle cx="0" cy="0" r="100" fill="url(#terminalGradient)" filter="url(#softGlow)"/>

    <!-- Refined penguin logo from logo.svg -->
    <g filter="url(#glow)">
      <!-- Main silhouette with modern gradient -->
      <path d="M-40,20 Q-40,-50 0,-70 Q40,-50 40,20 Q40,60 0,70 Q-40,60 -40,20 Z" 
            fill="#00d4ff"/>
      
      <!-- Simple eyes -->
      <circle cx="-14" cy="-36" r="4" fill="#ffffff"/>
      <circle cx="14" cy="-36" r="4" fill="#ffffff"/>
      <circle cx="-14" cy="-34" r="2" fill="#1a1a2e"/>
      <circle cx="14" cy="-34" r="2" fill="#1a1a2e"/>
      
      <!-- Minimal beak -->
      <circle cx="0" cy="-24" r="4" fill="#ff6b35"/>
      
      <!-- Subtle belly -->
      <ellipse cx="0" cy="10" rx="20" ry="30" fill="#ffffff" opacity="0.8"/>
    </g>

    <!-- Ping signal dots around the logo -->
    <g opacity="0.6">
      <circle cx="65" cy="-40" r="4" fill="#00d4ff">
        <animate attributeName="opacity" values="0.6;1;0.6" dur="1s" repeatCount="indefinite"/>
      </circle>
      <circle cx="80" cy="0" r="3" fill="#ff6b9d">
        <animate attributeName="opacity" values="1;0.6;1" dur="1.5s" repeatCount="indefinite"/>
      </circle>
      <circle cx="60" cy="40" r="3" fill="#00d4ff">
        <animate attributeName="opacity" values="0.6;1;0.6" dur="2s" repeatCount="indefinite"/>
      </circle>
      <circle cx="-65" cy="-40" r="4" fill="#ff6b9d">
        <animate attributeName="opacity" values="1;0.6;1" dur="1.8s" repeatCount="indefinite"/>
      </circle>
      <circle cx="-80" cy="0" r="3" fill="#00d4ff">
        <animate attributeName="opacity" values="0.6;1;0.6" dur="1.2s" repeatCount="indefinite"/>
      </circle>
      <circle cx="-60" cy="40" r="3" fill="#ff6b9d">
        <animate attributeName="opacity" values="1;0.6;1" dur="2.2s" repeatCount="indefinite"/>
      </circle>
    </g>

    <!-- Animated ping waves around logo -->
    <g opacity="0.5">
      <circle cx="0" cy="0" r="120" fill="none" stroke="#00d4ff" stroke-width="2" stroke-dasharray="10,5">
        <animate attributeName="r" values="120;140;120" dur="3s" repeatCount="indefinite"/>
        <animate attributeName="opacity" values="0.5;0.2;0.5" dur="3s" repeatCount="indefinite"/>
      </circle>
      <circle cx="0" cy="0" r="90" fill="none" stroke="#ff6b9d" stroke-width="2" stroke-dasharray="5,5">
        <animate attributeName="r" values="90;110;90" dur="2s" repeatCount="indefinite"/>
        <animate attributeName="opacity" values="0.7;0.3;0.7" dur="2s" repeatCount="indefinite"/>
      </circle>
    </g>
  </g>

  <!-- Title and Description (Center-Right) -->
  <g transform="translate(300, 160)">
    <!-- Main title -->
    <text x="0" y="0" font-family="system-ui, -apple-system, 'Segoe UI', Roboto, sans-serif"
          font-size="72" font-weight="900" fill="#ffffff" filter="url(#glow)">PINGU
    </text>

    <!-- Subtitle -->
    <text x="0" y="50" font-family="system-ui, -apple-system, 'Segoe UI', Roboto, sans-serif"
          font-size="28" font-weight="600" fill="#ffffff" opacity="0.9">
      Modern Network Diagnostics CLI
    </text>

    <!-- Description -->
    <text x="0" y="90" font-family="system-ui, -apple-system, 'Segoe UI', Roboto, sans-serif"
          font-size="18" font-weight="400" fill="#ffffff" opacity="0.7">
      Beautiful ping analyzer with real-time monitoring,
    </text>
    <text x="0" y="115" font-family="system-ui, -apple-system, 'Segoe UI', Roboto, sans-serif"
          font-size="18" font-weight="400" fill="#ffffff" opacity="0.7">
      comprehensive network quality metrics, and responsive UI
    </text>

    <!-- Features list -->
    <g transform="translate(0, 160)">
      <g>
        <circle cx="0" cy="0" r="4" fill="#00ff88"/>
        <text x="20" y="6" font-family="system-ui, -apple-system, 'Segoe UI', Roboto, sans-serif"
              font-size="16" font-weight="500" fill="#ffffff" opacity="0.8">
          Real-time ping monitoring with beautiful Ink UI
        </text>
      </g>
      <g transform="translate(0, 35)">
        <circle cx="0" cy="0" r="4" fill="#ff6b9d"/>
        <text x="20" y="6" font-family="system-ui, -apple-system, 'Segoe UI', Roboto, sans-serif"
              font-size="16" font-weight="500" fill="#ffffff" opacity="0.8">
          Comprehensive network quality analysis and metrics
        </text>
      </g>
      <g transform="translate(0, 70)">
        <circle cx="0" cy="0" r="4" fill="#00d4ff"/>
        <text x="20" y="6" font-family="system-ui, -apple-system, 'Segoe UI', Roboto, sans-serif"
              font-size="16" font-weight="500" fill="#ffffff" opacity="0.8">
          Cross-platform support with responsive terminal UI
        </text>
      </g>
    </g>
  </g>

  <!-- Terminal Preview (Bottom Right) -->
  <g transform="translate(750, 300)">
    <!-- Terminal window -->
    <rect x="0" y="0" width="480" height="240" rx="12" fill="url(#terminalGradient)" filter="url(#glow)"/>

    <!-- Terminal header -->
    <rect x="0" y="0" width="480" height="30" rx="12" fill="#21262d"/>
    <circle cx="20" cy="15" r="5" fill="#ff5f57"/>
    <circle cx="40" cy="15" r="5" fill="#ffbd2e"/>
    <circle cx="60" cy="15" r="5" fill="#28ca42"/>

    <!-- Terminal content -->
    <g transform="translate(20, 50)"
       font-family="'SF Mono', Monaco, 'Cascadia Code', 'Roboto Mono', Consolas, monospace">
      <!-- Command line -->
      <text x="0" y="0" font-size="14" fill="#00ff88">$ pingu google.com</text>

      <!-- Output -->
      <text x="0" y="25" font-size="12" fill="#ffffff" opacity="0.9">🐧 PINGU → google.com ✅ Complete ⏱️ 2m 14s</text>

      <!-- Live feed section -->
      <text x="0" y="50" font-size="12" fill="#00d4ff" font-weight="600">📡 Live Feed</text>
      <text x="0" y="70" font-size="11" fill="#00ff88">#001 🟢 24ms TTL=56</text>
      <text x="0" y="85" font-size="11" fill="#00ff88">#002 🟢 23ms TTL=56</text>
      <text x="0" y="100" font-size="11" fill="#00ff88">#003 🟢 25ms TTL=56</text>

      <!-- Stats section -->
      <text x="0" y="125" font-size="12" fill="#00d4ff" font-weight="600">📊 Quick Statistics</text>
      <text x="0" y="145" font-size="11" fill="#ffffff" opacity="0.8">Total Packets: 156 Successful: 156</text>
      <text x="0" y="160" font-size="11" fill="#ffffff" opacity="0.8">Failed: 0 Packet Loss: 0.0%</text>

      <!-- Progress bars -->
      <text x="0" y="185" font-size="12" fill="#00d4ff" font-weight="600">📈 Performance</text>
      <rect x="0" y="195" width="200" height="4" rx="2" fill="#333" opacity="0.5"/>
      <rect x="0" y="195" width="200" height="4" rx="2" fill="#00ff88"/>
    </g>
  </g>

  <!-- Floating network elements -->
  <g opacity="0.4">
    <!-- Data packets -->
    <g transform="translate(300, 100)">
      <rect x="0" y="0" width="12" height="8" rx="2" fill="#00ff88">
        <animateTransform attributeName="transform" type="translate"
                          values="0,0; 50,30; 100,0; 0,0" dur="6s" repeatCount="indefinite"/>
      </rect>
    </g>

    <g transform="translate(900, 100)">
      <circle cx="0" cy="0" r="4" fill="#ff6b9d">
        <animateTransform attributeName="transform" type="translate"
                          values="0,0; -60,40; -120,0; 0,0" dur="8s" repeatCount="indefinite"/>
      </circle>
    </g>

    <!-- Signal indicators -->
    <g transform="translate(200, 500)">
      <circle cx="0" cy="0" r="3" fill="#00d4ff">
        <animate attributeName="opacity" values="0.4;1;0.4" dur="2s" repeatCount="indefinite"/>
      </circle>
    </g>
    <g transform="translate(1050, 200)">
      <circle cx="0" cy="0" r="3" fill="#ff6b35">
        <animate attributeName="opacity" values="1;0.4;1" dur="3s" repeatCount="indefinite"/>
      </circle>
    </g>
  </g>

  <!-- GitHub Repository Link -->
  <g transform="translate(640, 580)">
    <!-- Background highlight box with better color -->
    <rect x="-140" y="-12" width="280" height="32" rx="16" fill="#ffffff" stroke="#ffffff" stroke-width="1" opacity="0.2"/>

    <!-- GitHub icon -->
    <g transform="translate(-105, 8)" fill="#ffffff">
      <path d="M-8,-8 C-11.3,-8 -14,-5.3 -14,-2 C-14,0.4 -12.4,2.4 -10.1,3.2 C-9.8,3.3 -9.7,3.1 -9.7,2.9 C-9.7,2.7 -9.7,2.1 -9.7,1.4 C-11.5,1.8 -11.9,0.5 -11.9,0.5 C-12.2,-0.2 -12.6,-0.4 -12.6,-0.4 C-13.2,-0.8 -12.5,-0.8 -12.5,-0.8 C-11.8,-0.7 -11.4,-0.1 -11.4,-0.1 C-10.8,0.8 -9.9,0.5 -9.7,0.4 C-9.6,-0.0 -9.4,-0.3 -9.2,-0.5 C-10.7,-0.7 -12.3,-1.3 -12.3,-3.5 C-12.3,-4.2 -12.0,-4.7 -11.4,-5.1 C-11.5,-5.3 -11.7,-6.0 -11.3,-6.9 C-11.3,-6.9 -10.7,-7.1 -9.7,-6.4 C-9.2,-6.6 -8.6,-6.7 -8.0,-6.7 C-7.4,-6.7 -6.8,-6.6 -6.3,-6.4 C-5.3,-7.1 -4.7,-6.9 -4.7,-6.9 C-4.3,-6.0 -4.5,-5.3 -4.6,-5.1 C-4.0,-4.7 -3.7,-4.2 -3.7,-3.5 C-3.7,-1.3 -5.3,-0.7 -6.8,-0.5 C-6.5,-0.2 -6.3,0.3 -6.3,1.1 C-6.3,2.2 -6.3,3.1 -6.3,3.3 C-6.3,3.5 -6.2,3.7 -5.9,3.6 C-3.6,2.8 -2.0,0.8 -2.0,-1.6 C-2.0,-5.3 -4.7,-8.0 -8.0,-8.0 Z"/>
    </g>

    <!-- Repository URL -->
    <text x="10" y="9" text-anchor="middle" font-family="system-ui, -apple-system, 'Segoe UI', Roboto, sans-serif"
          font-size="16" font-weight="600" fill="#ffffff" opacity="0.95">
      github.com/ali-master/pingu
    </text>
  </g>
</svg>
